<?xml version="1.0" encoding="utf-8"?>
<!-- Generator: Adobe Illustrator 21.1.0, SVG Export Plug-In . SVG Version: 6.00 Build 0)  -->
<svg version="1.1" id="Layer_1" xmlns="http://www.w3.org/2000/svg" xmlns:xlink="http://www.w3.org/1999/xlink" x="0px" y="0px"
	 viewBox="0 0 1224 396" style="enable-background:new 0 0 1224 396;" xml:space="preserve">
<style type="text/css">
	.st0{fill:#FFFFFF;}
</style>
<g>
	<g>
		<path class="st0" d="M376.6,333.5c-27.5-0.5-53.2-6.9-75.8-23.1c-23.7-16.9-39.1-39.9-47.2-67.5c-12.2-41.2-10.3-81.8,9.6-120.4
			C282.5,84.7,313.8,62.8,356,57c27.1-3.7,53.4-0.4,78.4,11c29.9,13.6,49.8,36.6,61.8,66.7c9,22.5,13.5,46,11.9,70.3
			c-2.4,37.2-16.2,69.6-43.5,95.6c-18.9,18-41.8,28-67.6,31.2C390.2,332.7,383.4,333,376.6,333.5z M442.9,195.1
			c-0.1-13.5-2-27.4-6.9-40.8c-5.5-15.1-14.1-27.6-28.4-35.7c-21.8-12.3-49.2-11-68,3.6c-12.8,9.9-20.2,23.4-24.6,38.7
			c-4.6,15.8-5.1,32-3.3,48.2c1.4,13,4.8,25.5,11.3,37c12.9,22.6,36.3,34.7,61.8,31.2c23.1-3.2,39.4-16,49.3-36.9
			C440.8,226.3,442.7,211.2,442.9,195.1z"/>
		<path class="st0" d="M1190.1,107.3c-16.2,11.6-32.1,23-48.1,34.4c-3.7-3.4-7.2-6.9-10.9-10.1c-16.2-14.3-35.2-21.5-56.7-22.4
			c-8.6-0.4-16.9,1.1-24.6,5.2c-6.4,3.4-11.4,8.1-14.1,15c-3.6,9.2-0.4,19.1,7.8,24.5c5.9,3.9,12.6,5.6,19.5,6.5
			c24.5,3.3,48.8,7.1,72.9,12.8c13.1,3.2,25.4,8.2,35.6,17.3c16.1,14.2,22.4,32.6,21.4,53.6c-1.2,24.4-10.9,45-29.5,61.2
			c-13.1,11.4-28.5,18.2-45.3,21.8c-32.2,7-64.4,6.7-96.3-2.3c-26-7.3-47.1-22.2-64.4-42.8c-0.9-1.1-1.8-2.1-2.8-3.4
			c16.6-10.5,33-21,49.7-31.5c0.9,1,1.7,1.9,2.5,2.8c14,15.4,31.8,23.8,51.9,28c14.4,3,28.9,3.4,43.2-1c6.9-2.1,13.3-5.2,18.6-10.4
			c6.3-6.1,9-13.5,6.9-22.2c-1.3-5.5-5-9.4-9.7-12.2c-6.6-4-14-5.9-21.4-7c-14.8-2.3-29.7-4.2-44.4-6.5c-16.1-2.6-32-6.1-46.6-13.9
			c-17.7-9.5-30.5-23.2-34.4-43.4c-6.7-34.6,4.4-73.4,46.7-92.3c20.9-9.4,43-12.3,65.8-11.3c38.1,1.7,70.4,16.8,98.5,42.1
			C1184.4,102.3,1187.2,104.7,1190.1,107.3z"/>
		<path class="st0" d="M675,283.9c-0.9,0-1.7,0-2.5,0c-30.4,0-60.8,0-91.2-0.1c-2.1,0-2.9,0.6-3.5,2.6c-3.7,12.4-7.6,24.8-11.5,37.2
			c-0.4,1.4-0.9,2.2-2.6,2.2c-22-0.1-44,0-66-0.1c-0.5,0-0.9-0.1-1.7-0.1c0.5-1.5,0.9-2.8,1.4-4.1c31.6-85.1,63.1-170.1,94.7-255.2
			c0.7-1.8,1.4-2.5,3.5-2.5c21.2,0.1,42.3,0.1,63.5,0c1.8,0,2.5,0.6,3.1,2.2c31.5,85.8,63.1,171.6,94.7,257.3
			c0.2,0.7,0.4,1.4,0.8,2.4c-1,0-1.8,0-2.6,0c-21.5,0-43,0-64.5,0.1c-2.1,0-2.8-0.7-3.4-2.6c-3.7-12.3-7.6-24.7-11.4-37
			C675.5,285.5,675.3,284.8,675,283.9z M626.5,127.6c-10.7,36.1-21.4,72.5-32.2,109c21.8,0,43.6,0,65.8,0
			C648.8,199.9,637.6,163.5,626.5,127.6z"/>
		<path class="st0" d="M99.5,114.3c0,18.5,0,36.6,0,54.9c41.6,0,83,0,124.7,0c0,17,0,33.7,0,50.8c-41.5,0-82.9,0-124.7,0
			c0,35.4,0,70.5,0,105.7c-21.9,0-43.4,0-65.1,0c0-87.2,0-174.3,0-261.6c66.8,0,133.6,0,200.5,0c0,16.7,0,33.3,0,50.2
			C189.8,114.3,144.8,114.3,99.5,114.3z"/>
		<path class="st0" d="M775.1,325.6c0-87.4,0-174.6,0-261.9c21.7,0,43.3,0,65.1,0c0,68.8,0,137.7,0,206.7c34.2,0,68.1,0,102.2,0
			c0,18.5,0,36.8,0,55.2C886.7,325.6,831,325.6,775.1,325.6z"/>
		<path class="st0" d="M1195,23.1c0,3.2,0,6.3,0,9.5c-388.6,0-777.2,0-1165.9,0c0-3,0-6.2,0-9.5C417.6,23.1,806.2,23.1,1195,23.1z"
			/>
		<path class="st0" d="M1195,356.2c0,3.2,0,6.3,0,9.5c-388.7,0-777.3,0-1166,0c0-3.2,0-6.3,0-9.5
			C417.6,356.2,806.1,356.2,1195,356.2z"/>
	</g>
</g>
</svg>
