<svg id="SvgjsSvg1001" width="288" height="288" xmlns="http://www.w3.org/2000/svg" version="1.1" xmlns:xlink="http://www.w3.org/1999/xlink" xmlns:svgjs="http://svgjs.com/svgjs"><defs id="SvgjsDefs1002"></defs><g id="SvgjsG1008" transform="matrix(1,0,0,1,0,0)"><svg xmlns="http://www.w3.org/2000/svg" width="288" height="288" enable-background="new 0 0 32 32" viewBox="0 0 32 32"><path d="M16,16c-6.7285,0-12,2.855-12,6.5S9.2715,29,16,29s12-2.855,12-6.5S22.7285,16,16,16z M16,27c-5.8936,0-10-2.3716-10-4.5   S10.1064,18,16,18s10,2.3716,10,4.5S21.8936,27,16,27z M16,14c3.0322,0,5.5-2.4673,5.5-5.5S19.0322,3,16,3s-5.5,2.4673-5.5,5.5   S12.9678,14,16,14z M16,5c1.9297,0,3.5,1.5703,3.5,3.5S17.9297,12,16,12s-3.5-1.5703-3.5-3.5S14.0703,5,16,5z" fill="#ffffff" class="color000 svgShape"></path></svg></g></svg>