<svg xmlns="http://www.w3.org/2000/svg" xmlns:xlink="http://www.w3.org/1999/xlink" xmlns:svgjs="http://svgjs.com/svgjs" id="SvgjsSvg1001" version="1.1" viewBox="6.82 102.85 274.35 80.61"><defs id="SvgjsDefs1002"/><g id="SvgjsG1008" transform="matrix(1,0,0,1,0,0)"><svg xmlns="http://www.w3.org/2000/svg" enable-background="new 0 0 1224 396" viewBox="0 0 1224 396" width="288" height="288"><path fill="#dda11d" d="M376.6 333.5c-27.5-.5-53.2-6.9-75.8-23.1-23.7-16.9-39.1-39.9-47.2-67.5-12.2-41.2-10.3-81.8 9.6-120.4C282.5 84.7 313.8 62.8 356 57c27.1-3.7 53.4-.4 78.4 11 29.9 13.6 49.8 36.6 61.8 66.7 9 22.5 13.5 46 11.9 70.3-2.4 37.2-16.2 69.6-43.5 95.6-18.9 18-41.8 28-67.6 31.2C390.2 332.7 383.4 333 376.6 333.5zM442.9 195.1c-.1-13.5-2-27.4-6.9-40.8-5.5-15.1-14.1-27.6-28.4-35.7-21.8-12.3-49.2-11-68 3.6-12.8 9.9-20.2 23.4-24.6 38.7-4.6 15.8-5.1 32-3.3 48.2 1.4 13 4.8 25.5 11.3 37 12.9 22.6 36.3 34.7 61.8 31.2 23.1-3.2 39.4-16 49.3-36.9C440.8 226.3 442.7 211.2 442.9 195.1zM1190.1 107.3c-16.2 11.6-32.1 23-48.1 34.4-3.7-3.4-7.2-6.9-10.9-10.1-16.2-14.3-35.2-21.5-56.7-22.4-8.6-.4-16.9 1.1-24.6 5.2-6.4 3.4-11.4 8.1-14.1 15-3.6 9.2-.4 19.1 7.8 24.5 5.9 3.9 12.6 5.6 19.5 6.5 24.5 3.3 48.8 7.1 72.9 12.8 13.1 3.2 25.4 8.2 35.6 17.3 16.1 14.2 22.4 32.6 21.4 53.6-1.2 24.4-10.9 45-29.5 61.2-13.1 11.4-28.5 18.2-45.3 21.8-32.2 7-64.4 6.7-96.3-2.3-26-7.3-47.1-22.2-64.4-42.8-.9-1.1-1.8-2.1-2.8-3.4 16.6-10.5 33-21 49.7-31.5.9 1 1.7 1.9 2.5 2.8 14 15.4 31.8 23.8 51.9 28 14.4 3 28.9 3.4 43.2-1 6.9-2.1 13.3-5.2 18.6-10.4 6.3-6.1 9-13.5 6.9-22.2-1.3-5.5-5-9.4-9.7-12.2-6.6-4-14-5.9-21.4-7-14.8-2.3-29.7-4.2-44.4-6.5-16.1-2.6-32-6.1-46.6-13.9-17.7-9.5-30.5-23.2-34.4-43.4-6.7-34.6 4.4-73.4 46.7-92.3 20.9-9.4 43-12.3 65.8-11.3 38.1 1.7 70.4 16.8 98.5 42.1C1184.4 102.3 1187.2 104.7 1190.1 107.3zM675 283.9c-.9 0-1.7 0-2.5 0-30.4 0-60.8 0-91.2-.1-2.1 0-2.9.6-3.5 2.6-3.7 12.4-7.6 24.8-11.5 37.2-.4 1.4-.9 2.2-2.6 2.2-22-.1-44 0-66-.1-.5 0-.9-.1-1.7-.1.5-1.5.9-2.8 1.4-4.1 31.6-85.1 63.1-170.1 94.7-255.2.7-1.8 1.4-2.5 3.5-2.5 21.2.1 42.3.1 63.5 0 1.8 0 2.5.6 3.1 2.2 31.5 85.8 63.1 171.6 94.7 257.3.2.7.4 1.4.8 2.4-1 0-1.8 0-2.6 0-21.5 0-43 0-64.5.1-2.1 0-2.8-.7-3.4-2.6-3.7-12.3-7.6-24.7-11.4-37C675.5 285.5 675.3 284.8 675 283.9zM626.5 127.6c-10.7 36.1-21.4 72.5-32.2 109 21.8 0 43.6 0 65.8 0C648.8 199.9 637.6 163.5 626.5 127.6zM99.5 114.3c0 18.5 0 36.6 0 54.9 41.6 0 83 0 124.7 0 0 17 0 33.7 0 50.8-41.5 0-82.9 0-124.7 0 0 35.4 0 70.5 0 105.7-21.9 0-43.4 0-65.1 0 0-87.2 0-174.3 0-261.6 66.8 0 133.6 0 200.5 0 0 16.7 0 33.3 0 50.2C189.8 114.3 144.8 114.3 99.5 114.3zM775.1 325.6c0-87.4 0-174.6 0-261.9 21.7 0 43.3 0 65.1 0 0 68.8 0 137.7 0 206.7 34.2 0 68.1 0 102.2 0 0 18.5 0 36.8 0 55.2C886.7 325.6 831 325.6 775.1 325.6zM1195 23.1c0 3.2 0 6.3 0 9.5-388.6 0-777.2 0-1165.9 0 0-3 0-6.2 0-9.5C417.6 23.1 806.2 23.1 1195 23.1zM1195 356.2c0 3.2 0 6.3 0 9.5-388.7 0-777.3 0-1166 0 0-3.2 0-6.3 0-9.5C417.6 356.2 806.1 356.2 1195 356.2z" class="colorfff svgShape"/></svg></g></svg>